<svg xmlns="http://www.w3.org/2000/svg" viewBox="0 0 523.74 933.22"><defs><style>.cls-1{fill:#74ed7d;}.cls-2{font-size:20px;font-family:OpenSans, Open Sans;}.cls-2,.cls-3{fill:#4c4c4c;}.cls-3{font-size:40px;font-family:OpenSans-Light, Open Sans;font-weight:300;}.cls-4,.cls-5,.cls-6,.cls-7{fill:none;}.cls-4,.cls-5{stroke:#4aa34e;stroke-width:2px;}.cls-4,.cls-6{stroke-miterlimit:10;}.cls-5,.cls-7{stroke-linecap:round;stroke-linejoin:round;}.cls-6,.cls-7{stroke:#4c4c4c;stroke-width:14px;}</style></defs><title>FinalReviewCard4</title><g id="Layer_2" data-name="Layer 2"><g id="Dashboard"><g id="Card4"><rect class="cls-1" x="163.74" y="281.22" width="360" height="652" rx="10"/><text class="cls-2" transform="translate(300.2 687.22)">Humidity</text><text class="cls-3" transform="translate(319.95 732.22)">22</text><text x="-7" y="-7"/><path id="fav_icon" class="cls-4" d="M501.49,308.43,503,313a1.83,1.83,0,0,0,1.75,1.27h4.75a1.84,1.84,0,0,1,1.08,3.33l-3.84,2.79a1.83,1.83,0,0,0-.67,2.06l1.47,4.52a1.84,1.84,0,0,1-2.84,2.06l-3.84-2.79a1.85,1.85,0,0,0-2.17,0L494.81,329a1.84,1.84,0,0,1-2.83-2.06l1.46-4.52a1.84,1.84,0,0,0-.66-2.06l-3.85-2.79a1.84,1.84,0,0,1,1.08-3.33h4.76a1.85,1.85,0,0,0,1.75-1.27l1.46-4.52A1.85,1.85,0,0,1,501.49,308.43Z" transform="translate(-7 -7)"/><g id="arrow_icon"><polyline class="cls-5" points="195.74 895.22 201.74 903.22 183.74 903.22"/><line class="cls-5" x1="195.74" y1="911.22" x2="201.74" y2="903.22"/></g><g id="Rain"><path class="cls-6" d="M386.73,571.61a33.59,33.59,0,1,0-16.3-62.95,45.3,45.3,0,1,0-41.89,62.56Z" transform="translate(-7 -7)"/><line class="cls-7" x1="316.74" y1="588.22" x2="301.74" y2="620.22"/><line class="cls-7" x1="346.74" y1="588.22" x2="331.74" y2="620.22"/><line class="cls-7" x1="376.74" y1="588.22" x2="361.74" y2="620.22"/></g><text x="-7" y="-7"/></g></g></g></svg>