<svg xmlns="http://www.w3.org/2000/svg" viewBox="0 0 613 198"><defs><style>.cls-1,.cls-3,.cls-5{fill:#fff;}.cls-2{fill:#74ed7d;}.cls-3{font-size:30px;font-family:OpenSans, Open Sans;}.cls-4{fill:#d1d9e3;}.cls-5{font-size:27px;font-family:OpenSans-Light, Open Sans;font-weight:300;}</style></defs><title>FinalReviewForm</title><g id="Layer_2" data-name="Layer 2"><g id="Error"><g id="Form"><path class="cls-1" d="M603,2a8,8,0,0,1,8,8V84a8,8,0,0,1-8,8H10a8,8,0,0,1-8-8V10a8,8,0,0,1,8-8H603m0-2H10A10,10,0,0,0,0,10V84A10,10,0,0,0,10,94H603a10,10,0,0,0,10-10V10A10,10,0,0,0,603,0Z"/><g id="add_button"><rect class="cls-2" y="104" width="301" height="94" rx="10"/><text class="cls-3" transform="translate(103.04 161.5)">Search</text></g><g id="Cancel_button"><rect class="cls-4" x="311" y="104" width="301" height="94" rx="10"/><text class="cls-3" transform="translate(405.65 161.5)">CANCEL</text></g><text class="cls-5" transform="translate(15.04 58)">Search for a Area...</text></g></g></g></svg>