<svg xmlns="http://www.w3.org/2000/svg" viewBox="0 0 34 34"><defs><style>.cls-1{fill:none;stroke:#74ed7d;stroke-linecap:round;stroke-linejoin:round;stroke-width:2px;}</style></defs><title>FinalReviewsettings_active</title><g id="Layer_2" data-name="Layer 2"><g id="Error"><g id="settings_active"><path class="cls-1" d="M32.15,13h-2.7a.87.87,0,0,1-.81-.58A11.1,11.1,0,0,0,28,11a.86.86,0,0,1,.16-1l1.5-1.4c.53-.5.53-1.07.17-1.41L26.16,3.7A.87.87,0,0,0,25,3.7L23.18,5.4a.85.85,0,0,1-.95.14,14.31,14.31,0,0,0-1.62-.63.84.84,0,0,1-.61-.8v-2c0-.7-.38-1.08-.85-1.08h-5.3a.85.85,0,0,0-.85.85v1.7a.85.85,0,0,1-.58.8A12,12,0,0,0,11,5a.85.85,0,0,1-1-.16L8.57,3.31c-.5-.53-1.07-.53-1.41-.17L3.7,6.84A.87.87,0,0,0,3.7,8L5.4,9.82a.85.85,0,0,1,.14.95,14.31,14.31,0,0,0-.63,1.62.84.84,0,0,1-.8.61h-2c-.7,0-1.08.38-1.08.85v5.3a.85.85,0,0,0,.85.85H4.53a.87.87,0,0,1,.82.6A11.7,11.7,0,0,0,6,22.24a.86.86,0,0,1-.14,1L4.24,24.87c-.5.51-.5,1-.17,1.38L7.82,30A.85.85,0,0,0,9,30l1.77-1.79a.88.88,0,0,1,1-.15,12.41,12.41,0,0,0,1.59.67.84.84,0,0,1,.6.8v2.58a.85.85,0,0,0,.85.85h5.3a.85.85,0,0,0,.85-.85v-2.7a.87.87,0,0,1,.58-.81A11.1,11.1,0,0,0,23,28a.86.86,0,0,1,1,.16l1.4,1.5c.5.53,1.07.53,1.41.17l3.46-3.7a.87.87,0,0,0,0-1.17l-1.7-1.81a.85.85,0,0,1-.14-.95,14.31,14.31,0,0,0,.63-1.62.84.84,0,0,1,.8-.61h2c.7,0,1.08-.38,1.08-.85v-5.3A.85.85,0,0,0,32.15,13ZM17,22a5,5,0,1,1,5-5A5,5,0,0,1,17,22Z"/></g></g></g></svg>