<svg xmlns="http://www.w3.org/2000/svg" viewBox="0 0 360 652"><defs><style>.cls-1{fill:#f8bf70;}.cls-2,.cls-4,.cls-5{fill:none;}.cls-2{stroke:#4c4c4c;stroke-width:14px;}.cls-2,.cls-4{stroke-miterlimit:10;}.cls-3{fill:#4c4c4c;}.cls-4,.cls-5{stroke:#b57c39;stroke-width:2px;}.cls-5{stroke-linecap:round;stroke-linejoin:round;}</style></defs><title>FinalReviewCard1</title><g id="Layer_2" data-name="Layer 2"><g id="Dashboard"><g id="Card1"><rect class="cls-1" width="360" height="652" rx="10"/><path class="cls-2" d="M224,314.5a43,43,0,1,0-20.87-80.6A58,58,0,1,0,149.5,314Z"/><path class="cls-3" d="M111.55,394a4.66,4.66,0,0,0-3.72,1.57,6.34,6.34,0,0,0-1.36,4.29,6.42,6.42,0,0,0,1.32,4.33,4.65,4.65,0,0,0,3.74,1.53,12.74,12.74,0,0,0,3.41-.54v1.46a10.51,10.51,0,0,1-3.66.56,6.18,6.18,0,0,1-4.87-1.92,7.89,7.89,0,0,1-1.72-5.44,8.61,8.61,0,0,1,.83-3.87,5.93,5.93,0,0,1,2.38-2.55,7.21,7.21,0,0,1,3.67-.9,8.82,8.82,0,0,1,3.93.82l-.71,1.42A7.67,7.67,0,0,0,111.55,394Z"/><path class="cls-3" d="M124.39,407l-.32-1.52H124a4.48,4.48,0,0,1-1.59,1.36,4.88,4.88,0,0,1-2,.36,3.62,3.62,0,0,1-2.5-.82A3,3,0,0,1,117,404q0-3.24,5.18-3.4l1.82-.06v-.66a2.72,2.72,0,0,0-.54-1.86,2.23,2.23,0,0,0-1.73-.6,7,7,0,0,0-3,.82l-.5-1.24a7.49,7.49,0,0,1,1.73-.67,7.22,7.22,0,0,1,1.89-.25,4.05,4.05,0,0,1,2.84.85,3.55,3.55,0,0,1,.92,2.73V407Zm-3.66-1.14a3.31,3.31,0,0,0,2.38-.83,3.11,3.11,0,0,0,.86-2.33v-1l-1.62.06a5.88,5.88,0,0,0-2.79.61,1.79,1.79,0,0,0-.85,1.65,1.69,1.69,0,0,0,.53,1.34A2.25,2.25,0,0,0,120.73,405.86Z"/><path class="cls-3" d="M133.82,396.1a6.26,6.26,0,0,1,1.28.12l-.23,1.5a5.28,5.28,0,0,0-1.17-.14,2.84,2.84,0,0,0-2.22,1.05,3.83,3.83,0,0,0-.93,2.63V407h-1.62V396.3h1.34l.19,2h.07a4.73,4.73,0,0,1,1.44-1.61A3.23,3.23,0,0,1,133.82,396.1Z"/><path class="cls-3" d="M142.08,396.12a4,4,0,0,1,3.27,1.44,7.71,7.71,0,0,1,0,8.18,4,4,0,0,1-3.26,1.46,4.56,4.56,0,0,1-1.91-.39,3.54,3.54,0,0,1-1.45-1.19h-.12l-.34,1.38H137.1V391.8h1.62v3.7c0,.82,0,1.56-.08,2.22h.08A3.83,3.83,0,0,1,142.08,396.12Zm-.24,1.36a2.85,2.85,0,0,0-2.39.95,7.38,7.38,0,0,0,0,6.44,2.88,2.88,0,0,0,2.41,1,2.5,2.5,0,0,0,2.23-1.09,5.59,5.59,0,0,0,.73-3.13,5.4,5.4,0,0,0-.73-3.12A2.6,2.6,0,0,0,141.84,397.48Z"/><path class="cls-3" d="M158.59,401.64a5.92,5.92,0,0,1-1.32,4.09,4.64,4.64,0,0,1-3.64,1.47,4.81,4.81,0,0,1-2.55-.68,4.5,4.5,0,0,1-1.72-1.93,6.78,6.78,0,0,1-.6-2.95,5.85,5.85,0,0,1,1.31-4.08,4.63,4.63,0,0,1,3.63-1.46,4.51,4.51,0,0,1,3.57,1.5A5.87,5.87,0,0,1,158.59,401.64Zm-8.15,0a5,5,0,0,0,.82,3.12,2.83,2.83,0,0,0,2.41,1.08,2.88,2.88,0,0,0,2.42-1.07,5.06,5.06,0,0,0,.82-3.13,5,5,0,0,0-.82-3.1,2.9,2.9,0,0,0-2.44-1.06,2.86,2.86,0,0,0-2.4,1A5.05,5.05,0,0,0,150.44,401.64Z"/><path class="cls-3" d="M168.76,407v-6.92a2.79,2.79,0,0,0-.6-2,2.43,2.43,0,0,0-1.86-.64,3.06,3.06,0,0,0-2.46.91,4.5,4.5,0,0,0-.79,3V407h-1.62V396.3h1.32l.27,1.46h.07a3.33,3.33,0,0,1,1.4-1.22,4.55,4.55,0,0,1,2-.44,4.07,4.07,0,0,1,2.91.93,4,4,0,0,1,1,3v7Z"/><path class="cls-3" d="M190.54,399.72a7.25,7.25,0,0,1-1.91,5.41A7.59,7.59,0,0,1,183.1,407h-3.95V392.72h4.37a6.41,6.41,0,0,1,7,7Zm-1.75.06a5.78,5.78,0,0,0-1.4-4.21,5.66,5.66,0,0,0-4.17-1.41h-2.41v11.4h2a6.1,6.1,0,0,0,4.46-1.46A5.76,5.76,0,0,0,188.79,399.78Z"/><path class="cls-3" d="M193.35,393.4a1.09,1.09,0,0,1,.27-.82,1,1,0,0,1,1.36,0,1,1,0,0,1,.28.81,1.06,1.06,0,0,1-.28.81,1,1,0,0,1-.68.27.93.93,0,0,1-.68-.27A1.1,1.1,0,0,1,193.35,393.4ZM195.1,407h-1.62V396.3h1.62Z"/><path class="cls-3" d="M216.37,399.84a7.83,7.83,0,0,1-1.73,5.39,6.08,6.08,0,0,1-4.82,2,6.21,6.21,0,0,1-4.87-1.93,8,8,0,0,1-1.71-5.45,7.8,7.8,0,0,1,1.72-5.4,6.2,6.2,0,0,1,4.88-1.92,6.11,6.11,0,0,1,4.81,1.95A7.86,7.86,0,0,1,216.37,399.84Zm-11.37,0a6.79,6.79,0,0,0,1.23,4.4,5.06,5.06,0,0,0,7.18,0,6.94,6.94,0,0,0,1.21-4.41,6.83,6.83,0,0,0-1.21-4.37,4.32,4.32,0,0,0-3.57-1.49,4.42,4.42,0,0,0-3.61,1.5A6.72,6.72,0,0,0,205,399.84Z"/><path class="cls-3" d="M221.89,401.52l-3.72-5.22H220l2.82,4.1,2.81-4.1h1.83l-3.72,5.22,3.91,5.48h-1.83l-3-4.34-3,4.34H218Z"/><path class="cls-3" d="M229.66,393.4a1.09,1.09,0,0,1,.27-.82,1,1,0,0,1,1.36,0,1,1,0,0,1,.28.81,1.06,1.06,0,0,1-.28.81,1,1,0,0,1-.68.27.93.93,0,0,1-.68-.27A1.1,1.1,0,0,1,229.66,393.4Zm1.75,13.6h-1.62V396.3h1.62Z"/><path class="cls-3" d="M242.14,405.56h-.09a3.81,3.81,0,0,1-3.36,1.64,4,4,0,0,1-3.27-1.44,6.31,6.31,0,0,1-1.16-4.08,6.41,6.41,0,0,1,1.17-4.11,4.33,4.33,0,0,1,6.6.11h.13l-.07-.77,0-.75V391.8h1.62V407h-1.32Zm-3.25.28a2.93,2.93,0,0,0,2.41-.91,4.53,4.53,0,0,0,.75-2.91v-.34a5.34,5.34,0,0,0-.76-3.25,2.86,2.86,0,0,0-2.42-1,2.48,2.48,0,0,0-2.18,1.11,5.55,5.55,0,0,0-.75,3.13,5.28,5.28,0,0,0,.75,3.09A2.53,2.53,0,0,0,238.89,405.84Z"/><path class="cls-3" d="M251.63,407.2a5,5,0,0,1-3.75-1.45,5.6,5.6,0,0,1-1.37-4,6.23,6.23,0,0,1,1.28-4.12,4.25,4.25,0,0,1,3.42-1.52,4,4,0,0,1,3.18,1.32,5.11,5.11,0,0,1,1.17,3.5v1h-7.37a4.23,4.23,0,0,0,.95,2.86,3.31,3.31,0,0,0,2.55,1,8.6,8.6,0,0,0,3.41-.72v1.44a7.82,7.82,0,0,1-1.62.53A8.9,8.9,0,0,1,251.63,407.2Zm-.44-9.74a2.65,2.65,0,0,0-2.06.84,3.86,3.86,0,0,0-.9,2.32h5.6a3.56,3.56,0,0,0-.69-2.35A2.39,2.39,0,0,0,251.19,397.46Z"/><path class="cls-3" d="M177.29,452H159.42v-1.72l7.59-7.93a54.06,54.06,0,0,0,4.5-5.08,14.09,14.09,0,0,0,1.89-3.36,9.44,9.44,0,0,0,.61-3.36,5.5,5.5,0,0,0-1.68-4.16,6.1,6.1,0,0,0-4.36-1.6,10.82,10.82,0,0,0-6.83,2.6L160.08,426a12,12,0,0,1,7.93-3,8.27,8.27,0,0,1,5.87,2,7.13,7.13,0,0,1,2.14,5.49,11.3,11.3,0,0,1-1.44,5.47,31.61,31.61,0,0,1-5.24,6.54L162,450.05v.07h15.28Z"/><path class="cls-3" d="M199.16,430.16a6.33,6.33,0,0,1-1.67,4.48A7.73,7.73,0,0,1,193,437v.12a8.71,8.71,0,0,1,5.23,2.19A6.28,6.28,0,0,1,200,444a7.52,7.52,0,0,1-2.72,6.2q-2.73,2.21-7.84,2.2a16.79,16.79,0,0,1-7.6-1.62v-1.93a15.67,15.67,0,0,0,3.68,1.34,16.3,16.3,0,0,0,3.84.49c2.87,0,5-.58,6.48-1.75a6,6,0,0,0,2.17-4.93,5,5,0,0,0-2.22-4.35q-2.22-1.53-6.51-1.53h-3.09v-1.87h3.13a8.63,8.63,0,0,0,5.63-1.69,5.58,5.58,0,0,0,2.08-4.58,4.75,4.75,0,0,0-1.69-3.82,6.57,6.57,0,0,0-4.42-1.44,12,12,0,0,0-3.89.6,18,18,0,0,0-3.94,2l-1-1.31a12.7,12.7,0,0,1,4-2.19,14.5,14.5,0,0,1,4.75-.81A9,9,0,0,1,197,424.9,6.57,6.57,0,0,1,199.16,430.16Z"/><path id="fav_icon" class="cls-4" d="M331.75,21.21l1.47,4.52A1.84,1.84,0,0,0,335,27h4.75a1.84,1.84,0,0,1,1.08,3.33L337,33.12a1.83,1.83,0,0,0-.67,2.06l1.47,4.52a1.84,1.84,0,0,1-2.83,2.06L331.08,39a1.83,1.83,0,0,0-2.16,0l-3.85,2.79a1.84,1.84,0,0,1-2.83-2.06l1.47-4.52a1.83,1.83,0,0,0-.67-2.06l-3.84-2.79A1.84,1.84,0,0,1,320.28,27H325a1.84,1.84,0,0,0,1.75-1.27l1.47-4.52A1.84,1.84,0,0,1,331.75,21.21Z"/><g id="arrow_icon"><polyline class="cls-5" points="33 615 39 623 21 623"/><line class="cls-5" x1="33" y1="631" x2="39" y2="623"/></g><path id="Cloudy" class="cls-2" d="M224,314.5a43,43,0,1,0-20.87-80.6A58,58,0,1,0,149.5,314Z"/></g></g></g></svg>