<svg xmlns="http://www.w3.org/2000/svg" viewBox="0 0 1244.5 892.04"><defs><style>.cls-1,.cls-2{font-size:27px;font-family:OpenSans, Open Sans;}.cls-1{fill:#fff;}.cls-2{fill:#9b9b9b;}.cls-3,.cls-4{fill:#f8bf70;}.cls-4{stroke:#f8bf70;}.cls-4,.cls-6,.cls-8{stroke-linecap:round;stroke-linejoin:round;stroke-width:2px;}.cls-5,.cls-6{fill:#74ed7d;}.cls-6{stroke:#74ed7d;}.cls-7,.cls-8{fill:#d1d9e3;}.cls-8{stroke:#d1d9e3;}.cls-9{fill:#54d8f7;}</style></defs><title>FinalReviewWeek</title><g id="Layer_2" data-name="Layer 2"><g id="Week"><g id="Week-2" data-name="Week"><text/><text class="cls-1" transform="translate(531 264.81)">31</text><text class="cls-2" transform="translate(587 264.81)">22</text><text class="cls-1" transform="translate(531 363.81)">27</text><text class="cls-2" transform="translate(587 363.81)">24</text><text/><text class="cls-1" transform="translate(531 462.81)">33</text><text class="cls-2" transform="translate(587 462.81)">25</text><text/><text class="cls-1" transform="translate(531 562.81)">31</text><text class="cls-2" transform="translate(587 562.81)">22</text><text/><text class="cls-1" transform="translate(531 661.81)">28</text><text class="cls-2" transform="translate(587 661.81)">19</text><text/><text class="cls-1" transform="translate(531 761.81)">25</text><text class="cls-2" transform="translate(587 761.81)">17</text><text/><text class="cls-1" transform="translate(531 863.81)">26</text><text class="cls-2" transform="translate(587 863.81)">20</text><text class="cls-1" transform="translate(0 264.81)">Tuesday<tspan x="0" y="100">Wednesday</tspan><tspan x="0" y="200">Thursday</tspan><tspan x="0" y="300">Friday</tspan><tspan x="0" y="400">Saturday</tspan><tspan x="0" y="500">Sunday</tspan><tspan x="0" y="600">Monday</tspan></text><g id="sun_icon"><circle class="cls-3" cx="323.67" cy="656.04" r="18"/><line class="cls-4" x1="323.67" y1="629.04" x2="323.67" y2="621.04"/><line class="cls-4" x1="296.67" y1="656.04" x2="288.67" y2="656.04"/><line class="cls-4" x1="323.67" y1="682.04" x2="323.67" y2="690.04"/><line class="cls-4" x1="350.67" y1="656.04" x2="358.67" y2="656.04"/></g><g id="sun_icon-2" data-name="sun_icon"><circle class="cls-3" cx="323.67" cy="856.04" r="18"/><line class="cls-4" x1="323.67" y1="829.04" x2="323.67" y2="821.04"/><line class="cls-4" x1="296.67" y1="856.04" x2="288.67" y2="856.04"/><line class="cls-4" x1="323.67" y1="883.04" x2="323.67" y2="891.04"/><line class="cls-4" x1="350.67" y1="856.04" x2="358.67" y2="856.04"/></g><g id="rain_icon"><path class="cls-5" d="M337.31,465.2a13.27,13.27,0,0,0,12.83-16.61,13,13,0,0,0-9.12-9.37,13.37,13.37,0,0,0-10.14,1.16,17.88,17.88,0,0,0-20.48-10.63A17.62,17.62,0,0,0,297,442.89,17.9,17.9,0,0,0,314.37,465Z"/><line class="cls-6" x1="312.47" y1="474.83" x2="306.56" y2="487.45"/><line class="cls-6" x1="324.3" y1="474.83" x2="318.39" y2="487.45"/><line class="cls-6" x1="336.13" y1="474.83" x2="330.22" y2="487.45"/></g><g id="winter_icon"><path class="cls-7" d="M333.68,381.2a13.27,13.27,0,0,0,12.83-16.61,13,13,0,0,0-9.12-9.37,13.37,13.37,0,0,0-10.14,1.16,17.88,17.88,0,0,0-20.48-10.63,17.62,17.62,0,0,0-13.4,13.14A17.9,17.9,0,0,0,310.74,381Z"/><line class="cls-8" x1="347.68" y1="340.73" x2="354.18" y2="347.23"/><line class="cls-8" x1="347.68" y1="347.23" x2="354.18" y2="340.73"/><line class="cls-8" x1="327.97" y1="321.01" x2="334.47" y2="327.52"/><line class="cls-8" x1="327.97" y1="327.52" x2="334.47" y2="321.01"/></g><path id="cloud_icon" class="cls-9" d="M338.78,576.21A14.68,14.68,0,0,0,353,558.11a14.52,14.52,0,0,0-11-10.86,14.72,14.72,0,0,0-10.34,1.5A19.77,19.77,0,1,0,313.39,576Z"/><path id="cloud_icon-2" data-name="cloud_icon" class="cls-9" d="M338.78,775.21a14.65,14.65,0,1,0-7.11-27.46A19.76,19.76,0,1,0,313.39,775Z"/><path class="cls-9" d="M338.78,277.21a14.65,14.65,0,1,0-7.11-27.46A19.76,19.76,0,1,0,313.39,277Z"/><text/></g></g></g></svg>