<svg xmlns="http://www.w3.org/2000/svg" viewBox="0 0 360 652"><defs><style>.cls-1{fill:#d1d9e3;}.cls-2{font-size:20px;font-family:OpenSans, Open Sans;}.cls-2,.cls-3{fill:#4c4c4c;}.cls-3{font-size:40px;font-family:OpenSans-Light, Open Sans;font-weight:300;}.cls-4,.cls-5,.cls-6,.cls-7{fill:none;}.cls-4,.cls-5{stroke:#7c7c7c;stroke-width:2px;}.cls-4,.cls-6{stroke-miterlimit:10;}.cls-5,.cls-7{stroke-linecap:round;stroke-linejoin:round;}.cls-6,.cls-7{stroke:#4c4c4c;stroke-width:14px;}</style></defs><title>FinalReviewCard2</title><g id="Layer_2" data-name="Layer 2"><g id="Dashboard"><g id="Card2"><rect class="cls-1" width="360" height="652" rx="10"/><text class="cls-2" transform="translate(147.35 406)">Smoke</text><text class="cls-3" transform="translate(156.21 451)">10</text><path id="fav_icon" class="cls-4" d="M330.75,20.21l1.47,4.52A1.84,1.84,0,0,0,334,26h4.75a1.84,1.84,0,0,1,1.08,3.33L336,32.12a1.83,1.83,0,0,0-.67,2.06l1.47,4.52a1.84,1.84,0,0,1-2.83,2.06L330.08,38a1.83,1.83,0,0,0-2.16,0l-3.85,2.79a1.84,1.84,0,0,1-2.83-2.06l1.47-4.52a1.83,1.83,0,0,0-.67-2.06l-3.84-2.79A1.84,1.84,0,0,1,319.28,26H324a1.84,1.84,0,0,0,1.75-1.27l1.47-4.52A1.84,1.84,0,0,1,330.75,20.21Z"/><g id="arrow_icon"><polyline class="cls-5" points="32 614 38 622 20 622"/><line class="cls-5" x1="32" y1="630" x2="38" y2="622"/></g><g id="Winter"><path class="cls-6" d="M210,324.39a33.59,33.59,0,1,0-16.3-62.95A45.31,45.31,0,1,0,151.8,324Z"/><line class="cls-7" x1="245.5" y1="222.5" x2="262" y2="239"/><line class="cls-7" x1="245.5" y1="239" x2="262" y2="222.5"/><line class="cls-7" x1="195.5" y1="172.5" x2="212" y2="189"/><line class="cls-7" x1="195.5" y1="189" x2="212" y2="172.5"/></g></g></g></g></svg>