<svg xmlns="http://www.w3.org/2000/svg" viewBox="0 0 360 652"><defs><style>.cls-1{fill:#54d8f7;}.cls-2{font-size:20px;font-family:OpenSans, Open Sans;}.cls-2,.cls-3{fill:#4c4c4c;}.cls-3{font-size:40px;font-family:OpenSans-Light, Open Sans;font-weight:300;}.cls-4,.cls-5,.cls-6,.cls-7{fill:none;}.cls-4,.cls-5{stroke:#28a5b2;stroke-width:2px;}.cls-4,.cls-6{stroke-miterlimit:10;}.cls-5,.cls-7{stroke-linecap:round;stroke-linejoin:round;}.cls-6,.cls-7{stroke:#4c4c4c;stroke-width:14px;}</style></defs><title>FinalReviewCard3</title><g id="Layer_2" data-name="Layer 2"><g id="Dashboard"><g id="Card3"><rect class="cls-1" width="360" height="652" rx="10"/><text class="cls-2" transform="translate(138.09 408)">Nitrogen</text><text class="cls-3" transform="translate(156.21 453)">35</text><path id="fav_icon" class="cls-4" d="M330.75,22.21l1.47,4.52A1.84,1.84,0,0,0,334,28h4.75a1.84,1.84,0,0,1,1.08,3.33L336,34.12a1.83,1.83,0,0,0-.67,2.06l1.47,4.52a1.84,1.84,0,0,1-2.83,2.06L330.08,40a1.83,1.83,0,0,0-2.16,0l-3.85,2.79a1.84,1.84,0,0,1-2.83-2.06l1.47-4.52a1.83,1.83,0,0,0-.67-2.06l-3.84-2.79A1.84,1.84,0,0,1,319.28,28H324a1.84,1.84,0,0,0,1.75-1.27l1.47-4.52A1.84,1.84,0,0,1,330.75,22.21Z"/><g id="arrow_icon"><polyline class="cls-5" points="32 616 38 624 20 624"/><line class="cls-5" x1="32" y1="632" x2="38" y2="624"/></g><g id="Sun"><circle class="cls-6" cx="180.5" cy="256.5" r="45.5"/><line class="cls-7" x1="180" y1="188" x2="180" y2="168"/><line class="cls-7" x1="112" y1="256" x2="92" y2="256"/><line class="cls-7" x1="180" y1="324" x2="180" y2="344"/><line class="cls-7" x1="248" y1="256" x2="268" y2="256"/></g></g></g></g></svg>